<svg xmlns="http://www.w3.org/2000/svg" width="300" height="163" viewBox="0 0 300 163" fill="none">
  <path opacity="0.1" d="M300 104.24C300.021 96.6699 298.222 89.206 294.753 82.4778C291.284 75.7495 286.248 69.9541 280.07 65.5805C280.241 63.9453 280.328 62.3024 280.332 60.6583C280.332 34.6601 259.545 13.5919 233.916 13.5919C226.022 13.5834 218.26 15.6198 211.387 19.5027C193.24 7.5604 169.552 0.33313 143.638 0.33313C101.486 0.33313 65.2028 19.4634 49.1119 46.8961C48.2177 46.8436 47.3182 46.8148 46.4109 46.8148C20.7797 46.8148 -0.00522705 67.8908 -0.00522705 93.8891C-0.0231923 103.072 2.63001 112.062 7.63114 119.764C7.63114 143.156 29.7089 162.118 56.9318 162.118H254.434C275.816 162.118 293.15 147.228 293.15 128.861C297.648 121.437 300.017 112.92 300 104.24Z" fill="#00BAFC"/>
</svg>